<svg width="16" height="14" viewBox="0 0 16 14" fill="none" xmlns="http://www.w3.org/2000/svg">
<path d="M1.60112 6.3142C-1.60001 2.19982 4.80064 -1.45732 8.00112 3.1142C12.0213 -1.27454 16.2285 1.74286 15.3187 5.40013L8.00112 12.7144L1.60112 6.3142Z" fill="#F91B1B"/>
<path fill-rule="evenodd" clip-rule="evenodd" d="M8.00938 2.17018L7.17833 1.35345C5.53619 -0.260395 2.87375 -0.260395 1.23161 1.35345C-0.410536 2.9673 -0.410535 5.58386 1.23161 7.19771L7.98924 13.8389L7.99062 13.8376L8.01075 13.8574L14.7684 7.21615C16.4105 5.6023 16.4105 2.98574 14.7684 1.37189C13.1263 -0.24196 10.4638 -0.24196 8.82167 1.37189L8.00938 2.17018ZM7.99062 11.7124L11.7646 8.00345L12.8738 6.95077L12.8749 6.95185L13.6872 6.15356C14.7322 5.12656 14.7322 3.46147 13.6872 2.43448C12.6422 1.40749 10.9479 1.40749 9.90289 2.43448L8.0102 4.29456L8.00467 4.28912L8.00384 4.28993L6.09711 2.41604C5.05211 1.38905 3.35783 1.38905 2.31283 2.41604C1.26783 3.44304 1.26783 5.10813 2.31283 6.13512L4.25432 8.04316L4.2557 8.04181L7.99062 11.7124Z" fill="#F91B1B"/>
</svg>
